<svg viewBox="0 0 500 500" xmlns="http://www.w3.org/2000/svg" xmlns:xlink="http://www.w3.org/1999/xlink" width="100%" id="blobSvg">
  <path id="blob" d="M464.5,282.5Q451,315,439,347Q427,379,411,414.5Q395,450,356.5,455Q318,460,284,471Q250,482,215,473Q180,464,155,440Q130,416,100.5,398Q71,380,53,350Q35,320,31,285Q27,250,39,217.5Q51,185,64.5,155Q78,125,98,97Q118,69,149,51.5Q180,34,215,20Q250,6,286.5,15Q323,24,349,51Q375,78,394,105Q413,132,445.5,154Q478,176,478,213Q478,250,464.5,282.5Z" fill="#E0A500"></path>
</svg>