<svg xmlns="http://www.w3.org/2000/svg" viewBox="0 0 500 500"><g id="freepik--background-simple--inject-15"><path d="M113.26,104c16.44-16.53,37-28.94,59.77-33.39,29.68-5.81,62.91,3.5,82.18,26.82,25,30.27,21.9,74,31.67,112,2.31,9,5.56,18.09,11.83,25,10.41,11.42,27,14.65,42.47,15.12,19.38.58,43-2,59.72,9.94,32.07,23,11.38,68.89-8.31,92.8-28,33.95-76.23,47.08-115.35,24.21-12.37-7.23-23.08-17.64-36.69-22.1-18.18-5.95-37.9-.24-57-.63C145.78,353,111.74,327.49,92,295.3,59.61,242.43,62.69,170,99.46,120.1A145.75,145.75,0,0,1,113.26,104Z" style="fill:#FFC324"></path><path d="M113.26,104c16.44-16.53,37-28.94,59.77-33.39,29.68-5.81,62.91,3.5,82.18,26.82,25,30.27,21.9,74,31.67,112,2.31,9,5.56,18.09,11.83,25,10.41,11.42,27,14.65,42.47,15.12,19.38.58,43-2,59.72,9.94,32.07,23,11.38,68.89-8.31,92.8-28,33.95-76.23,47.08-115.35,24.21-12.37-7.23-23.08-17.64-36.69-22.1-18.18-5.95-37.9-.24-57-.63C145.78,353,111.74,327.49,92,295.3,59.61,242.43,62.69,170,99.46,120.1A145.75,145.75,0,0,1,113.26,104Z" style="fill:#fff;opacity:0.9;isolation:isolate"></path></g><g id="freepik--Shadow--inject-15"><ellipse id="freepik--path--inject-15" cx="250" cy="416.24" rx="193.89" ry="11.32" style="fill:#f5f5f5"></ellipse></g><g id="freepik--Plant--inject-15"><path d="M90.7,344.1c.21,1.47-3.78,2.44-7,3,.27,2.67,2,5.37,4.49,7.89,3.09-1.74,7.49-4,8.31-3.47S92.84,355,90,356.74a59,59,0,0,0,6.39,4.84c1.38-1.29,3-2.43,4-1.81s.73,2.63.23,4.42c3.36,1.95,5.87,3.14,5.87,3.14a68.29,68.29,0,0,0,2.25-9.53c-.17-.33-.34-.67-.5-1-.54-1.25,0-1.78.88-1.95a33.63,33.63,0,0,0,.06-6.87c-3.8-.8-8.42-2.27-6.69-4.55,1-1.37,3-1.53,4.94-1.19a7.87,7.87,0,0,0-.94-1.27c-6.91-7.62-11.73,0-11.73,0-4-3.35-9.67-2.45-10.89,2.79C86.12,343.15,90.44,342.29,90.7,344.1Z" style="fill:#FFC324"></path><path d="M90.7,344.1c.21,1.47-3.78,2.44-7,3,.27,2.67,2,5.37,4.49,7.89,3.09-1.74,7.49-4,8.31-3.47S92.84,355,90,356.74a59,59,0,0,0,6.39,4.84c1.38-1.29,3-2.43,4-1.81s.73,2.63.23,4.42c3.36,1.95,5.87,3.14,5.87,3.14a68.29,68.29,0,0,0,2.25-9.53c-.17-.33-.34-.67-.5-1-.54-1.25,0-1.78.88-1.95a33.63,33.63,0,0,0,.06-6.87c-3.8-.8-8.42-2.27-6.69-4.55,1-1.37,3-1.53,4.94-1.19a7.87,7.87,0,0,0-.94-1.27c-6.91-7.62-11.73,0-11.73,0-4-3.35-9.67-2.45-10.89,2.79C86.12,343.15,90.44,342.29,90.7,344.1Z" style="fill:#fff;opacity:0.30000000000000004;isolation:isolate"></path><path d="M99.33,400.09l-1-.08c0-.52,4.09-51.53-7.36-56.34a3.91,3.91,0,0,0-3.47.09c-4.13,2.15-6.11,11.08-6.13,11.17l-1-.21c.08-.38,2.1-9.48,6.65-11.85a4.89,4.89,0,0,1,4.32-.12C103.47,347.84,99.5,398,99.33,400.09Z" style="fill:#FFC324"></path><path d="M100.77,399c-.2-2.29-4.88-56.26,3.86-62,2.1-1.38,4-1.67,5.55-.87,4.13,2.09,4.67,10.91,4.69,11.29l-1,.06c0-.09-.53-8.63-4.14-10.45-1.25-.63-2.78-.36-4.55.8-8.24,5.41-3.46,60.52-3.42,61.08Z" style="fill:#FFC324"></path><path d="M102.08,403.35c-.06-1.76-1.5-43.07,6.45-46.69a5.61,5.61,0,0,1,4.74,0c5.46,2.4,8.83,12.58,9,13l-.95.31c0-.1-3.38-10.18-8.43-12.4a4.54,4.54,0,0,0-3.91,0c-6.1,2.77-6.31,34-5.87,45.74Z" style="fill:#FFC324"></path><path d="M100.06,401.46l-1-.11c1.41-12.3,4.09-45.07-.29-49a1.72,1.72,0,0,0-1.79-.56C94,353,92.25,363.6,91.81,367.62l-1-.11c.17-1.54,1.77-15.08,5.8-16.62a2.62,2.62,0,0,1,2.81.74C105.09,356.68,100.27,399.63,100.06,401.46Z" style="fill:#FFC324"></path><polygon points="83.37 378.15 119.3 378.15 116.3 418.39 86.37 418.39 83.37 378.15" style="fill:#263238"></polygon><polygon points="94.28 378.15 95.28 418.39 116.3 418.39 119.3 378.15 94.28 378.15" style="fill:#fff;opacity:0.2;isolation:isolate"></polygon><path d="M88.26,363.38c-.37,1-3.16.21-5.35-.57-.75,1.74-.58,4,.07,6.4,2.49,0,6,.08,6.31.71s-3.45.93-5.78,1a40.72,40.72,0,0,0,2.29,5.18c1.29-.33,2.68-.47,3.06.24s-.45,1.87-1.37,2.8c1.4,2.36,2.54,4,2.54,4A46.9,46.9,0,0,0,94.68,378c0-.26,0-.53,0-.8.1-1,.61-1.11,1.22-.91a24,24,0,0,0,2.39-4.22c-2.07-1.79-4.42-4.28-2.57-5.1,1.12-.48,2.35.07,3.45,1a5.11,5.11,0,0,0-.14-1.11c-1.65-7.07-7.23-4-7.23-4-1.33-3.44-5.13-4.81-7.67-2C85.77,361.22,88.73,362.17,88.26,363.38Z" style="fill:#FFC324"></path><path d="M88.26,363.38c-.37,1-3.16.21-5.35-.57-.75,1.74-.58,4,.07,6.4,2.49,0,6,.08,6.31.71s-3.45.93-5.78,1a40.72,40.72,0,0,0,2.29,5.18c1.29-.33,2.68-.47,3.06.24s-.45,1.87-1.37,2.8c1.4,2.36,2.54,4,2.54,4A46.9,46.9,0,0,0,94.68,378c0-.26,0-.53,0-.8.1-1,.61-1.11,1.22-.91a24,24,0,0,0,2.39-4.22c-2.07-1.79-4.42-4.28-2.57-5.1,1.12-.48,2.35.07,3.45,1a5.11,5.11,0,0,0-.14-1.11c-1.65-7.07-7.23-4-7.23-4-1.33-3.44-5.13-4.81-7.67-2C85.77,361.22,88.73,362.17,88.26,363.38Z" style="fill:#fff;opacity:0.30000000000000004;isolation:isolate"></path><path d="M114.94,368.16a13.49,13.49,0,0,0-3.28.69,7.65,7.65,0,0,1-.49-2.38c-.23-7.24,5-4.19,7.7-6.32a6,6,0,0,1,4.59-1.44,9.69,9.69,0,0,0-.62,1.25,1.12,1.12,0,0,0,.87,1.54,3.26,3.26,0,0,0,2-.24,3,3,0,0,0,.52-.36,10,10,0,0,1,1,2.42,14.17,14.17,0,0,1,.47,3.1,8.9,8.9,0,0,0-1.22.35,1.13,1.13,0,0,0-.45,1.72,5.35,5.35,0,0,0,1.5,1.05,16.92,16.92,0,0,1-.92,3.39l-.37.06c-.26.05-.52.12-.78.19l-.43.16a1.16,1.16,0,0,0-.68.88,1.15,1.15,0,0,0,.43,1,3.71,3.71,0,0,0,.54.33,8,8,0,0,1-2.87,2.89,29.23,29.23,0,0,1-3.06-1.61c.22-.29.44-.58.64-.88a1.71,1.71,0,0,0,.31-1.14,1.6,1.6,0,0,0-.59-1,1.54,1.54,0,0,0-1.14-.31,1.6,1.6,0,0,0-1,.59c-.24.36-.51.7-.77,1a18.88,18.88,0,0,1-3.68-3.58l.11,0a11.74,11.74,0,0,1,2-.34,1.54,1.54,0,0,0-.39-3Z" style="fill:#FFC324"></path><path d="M114.94,368.16a13.49,13.49,0,0,0-3.28.69,7.65,7.65,0,0,1-.49-2.38c-.23-7.24,5-4.19,7.7-6.32a6,6,0,0,1,4.59-1.44,9.69,9.69,0,0,0-.62,1.25,1.12,1.12,0,0,0,.87,1.54,3.26,3.26,0,0,0,2-.24,3,3,0,0,0,.52-.36,10,10,0,0,1,1,2.42,14.17,14.17,0,0,1,.47,3.1,8.9,8.9,0,0,0-1.22.35,1.13,1.13,0,0,0-.45,1.72,5.35,5.35,0,0,0,1.5,1.05,16.92,16.92,0,0,1-.92,3.39l-.37.06c-.26.05-.52.12-.78.19l-.43.16a1.16,1.16,0,0,0-.68.88,1.15,1.15,0,0,0,.43,1,3.71,3.71,0,0,0,.54.33,8,8,0,0,1-2.87,2.89,29.23,29.23,0,0,1-3.06-1.61c.22-.29.44-.58.64-.88a1.71,1.71,0,0,0,.31-1.14,1.6,1.6,0,0,0-.59-1,1.54,1.54,0,0,0-1.14-.31,1.6,1.6,0,0,0-1,.59c-.24.36-.51.7-.77,1a18.88,18.88,0,0,1-3.68-3.58l.11,0a11.74,11.74,0,0,1,2-.34,1.54,1.54,0,0,0-.39-3Z" style="fill:#fff;opacity:0.5;isolation:isolate"></path><path d="M117,343.18a9,9,0,0,1,2-1.08,5.17,5.17,0,0,0-.79-1.46c-3.06-3.91-4.44,0-6.82.06a4.08,4.08,0,0,0-3,1.25,8.47,8.47,0,0,1,.87.38.77.77,0,0,1,.22,1.2,2.22,2.22,0,0,1-1.17.77,3.27,3.27,0,0,1-.44,0,7.53,7.53,0,0,0,.54,1.71,9.55,9.55,0,0,0,1.12,1.83,6.29,6.29,0,0,1,.79-.35.77.77,0,0,1,1,.7,3.5,3.5,0,0,1-.33,1.21,11.75,11.75,0,0,0,2,1.39l.22-.14.5-.24a1.51,1.51,0,0,1,.3-.1.77.77,0,0,1,.74.16.78.78,0,0,1,.23.74,3.24,3.24,0,0,1-.13.41,5.45,5.45,0,0,0,2.77.26,18.5,18.5,0,0,0,.9-2.19l-.72-.18a1.19,1.19,0,0,1-.66-.46,1.07,1.07,0,0,1-.14-.8,1,1,0,0,1,.46-.66,1.07,1.07,0,0,1,.8-.14c.28.08.57.14.85.21a12.71,12.71,0,0,0,.37-3.49l-.07,0a7.77,7.77,0,0,0-1.22.71,1.05,1.05,0,1,1-1.14-1.77Z" style="fill:#FFC324"></path><path d="M117,343.18a9,9,0,0,1,2-1.08,5.17,5.17,0,0,0-.79-1.46c-3.06-3.91-4.44,0-6.82.06a4.08,4.08,0,0,0-3,1.25,8.47,8.47,0,0,1,.87.38.77.77,0,0,1,.22,1.2,2.22,2.22,0,0,1-1.17.77,3.27,3.27,0,0,1-.44,0,7.53,7.53,0,0,0,.54,1.71,9.55,9.55,0,0,0,1.12,1.83,6.29,6.29,0,0,1,.79-.35.77.77,0,0,1,1,.7,3.5,3.5,0,0,1-.33,1.21,11.75,11.75,0,0,0,2,1.39l.22-.14.5-.24a1.51,1.51,0,0,1,.3-.1.77.77,0,0,1,.74.16.78.78,0,0,1,.23.74,3.24,3.24,0,0,1-.13.41,5.45,5.45,0,0,0,2.77.26,18.5,18.5,0,0,0,.9-2.19l-.72-.18a1.19,1.19,0,0,1-.66-.46,1.07,1.07,0,0,1-.14-.8,1,1,0,0,1,.46-.66,1.07,1.07,0,0,1,.8-.14c.28.08.57.14.85.21a12.71,12.71,0,0,0,.37-3.49l-.07,0a7.77,7.77,0,0,0-1.22.71,1.05,1.05,0,1,1-1.14-1.77Z" style="fill:#fff;opacity:0.30000000000000004;isolation:isolate"></path><path d="M87.74,350.43c-.21,1.47,3.78,2.44,7,3-.27,2.67-2,5.37-4.5,7.88-3.08-1.73-7.49-4-8.3-3.47s3.63,3.53,6.45,5.24A57.69,57.69,0,0,1,82,367.9c-1.38-1.29-3-2.42-4-1.81s-.73,2.64-.23,4.42c-3.36,2-5.87,3.15-5.87,3.15a68.29,68.29,0,0,1-2.25-9.53c.17-.34.34-.67.49-1,.55-1.25,0-1.78-.87-2a32.92,32.92,0,0,1-.06-6.87c3.8-.79,8.42-2.27,6.69-4.55-1-1.37-2.95-1.53-4.94-1.18a8,8,0,0,1,.94-1.28c6.91-7.62,11.73,0,11.73,0,4-3.35,9.66-2.44,10.88,2.79C92.32,349.47,88,348.61,87.74,350.43Z" style="fill:#FFC324"></path><path d="M87.74,350.43c-.21,1.47,3.78,2.44,7,3-.27,2.67-2,5.37-4.5,7.88-3.08-1.73-7.49-4-8.3-3.47s3.63,3.53,6.45,5.24A57.69,57.69,0,0,1,82,367.9c-1.38-1.29-3-2.42-4-1.81s-.73,2.64-.23,4.42c-3.36,2-5.87,3.15-5.87,3.15a68.29,68.29,0,0,1-2.25-9.53c.17-.34.34-.67.49-1,.55-1.25,0-1.78-.87-2a32.92,32.92,0,0,1-.06-6.87c3.8-.79,8.42-2.27,6.69-4.55-1-1.37-2.95-1.53-4.94-1.18a8,8,0,0,1,.94-1.28c6.91-7.62,11.73,0,11.73,0,4-3.35,9.66-2.44,10.88,2.79C92.32,349.47,88,348.61,87.74,350.43Z" style="fill:#fff;opacity:0.5;isolation:isolate"></path></g><g id="freepik--Lamp--inject-15"><polygon points="385.45 418.39 404.6 291.14 404.6 418.39 409.74 418.39 409.74 290.35 428.91 418.39 434.42 418.39 410.42 258.11 409.74 258.21 409.74 253 404.6 253 404.6 258.19 403.89 258.11 379.83 418.39 385.45 418.39" style="fill:#FFC324"></polygon><polygon points="385.45 418.39 404.6 291.14 404.6 418.39 409.74 418.39 409.74 290.35 428.91 418.39 434.42 418.39 410.42 258.11 409.74 258.21 409.74 253 404.6 253 404.6 258.19 403.89 258.11 379.83 418.39 385.45 418.39" style="fill:#fff;opacity:0.30000000000000004;isolation:isolate"></polygon><polygon points="433.52 275.89 380.54 275.89 384.83 231.62 429.23 231.62 433.52 275.89" style="fill:#FFC324"></polygon><g style="opacity:0.5;isolation:isolate"><polygon points="433.52 275.89 380.54 275.89 384.83 231.62 429.23 231.62 433.52 275.89" style="fill:#fff"></polygon></g></g><g id="freepik--Interface--inject-15"><rect x="283.9" y="70.29" width="119.21" height="119.21" rx="5.13" style="fill:#FFC324"></rect><rect x="296.73" y="143.77" width="93.55" height="24.68" rx="4.63" style="fill:#fff;opacity:0.5"></rect><path d="M313.45,156.12l2.73,1.48L315,159.65,312.19,158l.05,3h-2.35l0-3.06-2.76,1.65L306,157.6l2.73-1.48-2.73-1.5,1.2-2.06,2.76,1.66,0-3.06h2.35l-.05,3.06,2.76-1.66,1.23,2.06Z" style="fill:#fff"></path><path d="M329.66,156.12l2.73,1.48-1.22,2.05L328.41,158l0,3h-2.35l0-3.06-2.75,1.65-1.21-2.05,2.73-1.48-2.73-1.5,1.21-2.06,2.75,1.66,0-3.06h2.35l0,3.06,2.76-1.66,1.22,2.06Z" style="fill:#fff"></path><path d="M345.88,156.12l2.73,1.48-1.23,2.05L344.63,158l.05,3h-2.36l0-3.06-2.76,1.65-1.2-2.05,2.73-1.48-2.73-1.5,1.2-2.06,2.76,1.66,0-3.06h2.36l-.05,3.06,2.75-1.66,1.23,2.06Z" style="fill:#fff"></path><path d="M362.1,156.12l2.73,1.48-1.23,2.05L360.84,158l.05,3h-2.35l0-3.06-2.75,1.65-1.2-2.05,2.73-1.48-2.73-1.5,1.2-2.06,2.75,1.66,0-3.06h2.35l-.05,3.06,2.76-1.66,1.23,2.06Z" style="fill:#fff"></path><path d="M378.31,156.12,381,157.6l-1.22,2.05L377.06,158l.05,3h-2.35l0-3.06L372,159.65l-1.21-2.05,2.73-1.48-2.73-1.5,1.21-2.06,2.75,1.66,0-3.06h2.35l-.05,3.06,2.76-1.66,1.22,2.06Z" style="fill:#fff"></path><circle cx="343.5" cy="107.18" r="26.73" transform="translate(24.82 274.28) rotate(-45)" style="fill:#fff;opacity:0.5"></circle><path d="M354,105.68h-20.9a2.86,2.86,0,0,0-2.87,2.87v12.73a2.87,2.87,0,0,0,2.87,2.87H354a2.87,2.87,0,0,0,2.87-2.87V108.55A2.86,2.86,0,0,0,354,105.68Zm-8.53,14.17h-3.84l.8-5.21a2.54,2.54,0,1,1,2.24,0Z" style="fill:#FFC324"></path><path d="M337.48,103.64l-.39-2a6.44,6.44,0,0,1,12.63-2.53l.39,1.95,3.69-.74-.4-2a10.2,10.2,0,1,0-20,4l.39,2Z" style="fill:#FFC324"></path><path d="M358.4,177.34H328.6a1.32,1.32,0,0,1-1.32-1.32h0a1.32,1.32,0,0,1,1.32-1.31h29.8a1.32,1.32,0,0,1,1.32,1.31h0A1.32,1.32,0,0,1,358.4,177.34Z" style="opacity:0.2;isolation:isolate"></path></g><g id="freepik--Character--inject-15"><g id="freepik--group--inject-15"><path d="M259.69,176.79l10.24-8.7s8.72-9.24,10.56-9.44,5.81.59,6.86,1.91-6.82,9.9-8.67,11.48-5.54,1.32-5.54,1.32l-9.76,9.43Z" style="fill:#ebb376"></path><path d="M180.69,409.11h-9.9a.73.73,0,0,0-.69.56l-1.61,7.26a1.21,1.21,0,0,0,.93,1.43l.26,0c3.2-.05,5.54-.25,9.56-.25,2.48,0,9.95.26,13.37.26s3.87-3.38,2.47-3.69c-6.28-1.37-11-3.26-13-5.07A2,2,0,0,0,180.69,409.11Z" style="fill:#263238"></path><path d="M222.67,408.86h-9.9a.71.71,0,0,0-.69.56l-1.61,7.25a1.21,1.21,0,0,0,.93,1.43l.26,0c3.21-.05,5.54-.25,9.56-.25,2.48,0,9.95.26,13.37.26s3.87-3.38,2.47-3.69c-6.28-1.37-11-3.26-13-5.07A2,2,0,0,0,222.67,408.86Z" style="fill:#263238"></path><path d="M175.44,225.62h43.25c4.11,22.45,15.87,113.33,6.64,184.13l-14.44,1.58s2.26-108.8-10.66-143.55c-1.49,18.6-3.26,38.38-4.79,48.91-3.76,25.92-12.24,93.45-12.24,93.45l-14.64.4s3.21-65.51,4.61-91C174.72,291.91,175.38,231.29,175.44,225.62Z" style="fill:#263238"></path><path d="M175.44,225.62h43.25c4.11,22.45,15.87,113.33,6.64,184.13l-14.44,1.58s2.26-108.8-10.66-143.55c-1.49,18.6-3.26,38.38-4.79,48.91-3.76,25.92-12.24,93.45-12.24,93.45l-14.64.4s3.21-65.51,4.61-91C174.72,291.91,175.38,231.29,175.44,225.62Z" style="fill:#fff;opacity:0.2;isolation:isolate"></path><path d="M200.23,267.78a116,116,0,0,1,4.83,18.71c1.21-16.55-3.63-34.1-3.63-34.1Z" style="opacity:0.2;isolation:isolate"></path><path d="M214.74,150.79c6.83.83,20.28,31.88,25.42,34.65s25.52-14.64,25.52-14.64l5.14,6.33s-23.14,24.73-32.24,22-22-26.11-25.91-33.43S214.74,150.79,214.74,150.79Z" style="fill:#FFC324"></path><path d="M270.82,177.13s-23.14,24.72-32.24,22c-4-1.21-8.66-6.34-13-12.34a200,200,0,0,1-12.9-21.08,12.48,12.48,0,0,1-.22-10.8,18.15,18.15,0,0,1,2.29-4.08c6.83.83,20.28,31.89,25.42,34.66s25.52-14.64,25.52-14.64Z" style="fill:#fff;opacity:0.5;isolation:isolate"></path><path d="M225.57,186.74a200,200,0,0,1-12.9-21.08,12.48,12.48,0,0,1-.22-10.8C216.34,159.65,224.25,171.15,225.57,186.74Z" style="opacity:0.2;isolation:isolate"></path><path d="M214.74,150.79s-27.51-1.3-48,3.87c0,0,7.68,59.51,7.34,85.43l49-2.64S221.89,177.53,214.74,150.79Z" style="fill:#FFC324"></path><path d="M174.08,240.09c.16-12.05-1.42-31.36-3.15-48.58h0c-.66-6.57-1.34-12.84-2-18.28-1.25-10.95-2.23-18.56-2.23-18.56,20.49-5.17,48-3.87,48-3.87,7.15,26.74,8.39,86.66,8.39,86.66Z" style="fill:#fff;opacity:0.6000000000000001;isolation:isolate"></path><path d="M170.93,191.5c-.66-6.57-1.34-12.84-2-18.28l3.15-2.42S174.86,181.64,170.93,191.5Z" style="opacity:0.2;isolation:isolate"></path><path d="M214.38,215l-2.69.13-7.3.34-4.48.21-9.33.44s0-.46-.05-1.3h0c-.08-1.81-.24-5.39-.51-9.9h0c-.19-3.36-.45-7.24-.77-11.3-.23-2.8-.48-5.68-.77-8.53-.43-4.23-.93-8.41-1.52-12.17-.31-2-.65-3.91-1-5.63l23.21-1.51s.3,1.47.75,4c.3,1.66.66,3.78,1.05,6.26A265.68,265.68,0,0,1,214.38,215Z" style="opacity:0.2;isolation:isolate"></path><path d="M204.39,215.49l-4.48.21c3.19-8.11,4.44-19.54,2.3-23.1-2.9-4.82-6.46,4.42-9,15.5a19.73,19.73,0,0,1-2.7,6.73c-.08-1.81-.24-5.39-.51-9.9h0a28.84,28.84,0,0,0,3.21-7.63c3.57-12.53,6.74-14.77,10.82-11.48C207.79,188.83,208.89,203.43,204.39,215.49Z" style="opacity:0.2;isolation:isolate"></path><path d="M211.69,215.15c.91-10.63-.49-28.54-3.61-34.05-3.57-6.32-11.45-6.46-15.24,5a29.48,29.48,0,0,1-3.59,7.55c-.23-2.8-.48-5.68-.77-8.53a30.73,30.73,0,0,0,2.85-4.25c4.32-7.65,11-11.21,17.6-6.76a8.71,8.71,0,0,1,2,2A265.68,265.68,0,0,1,214.38,215Z" style="opacity:0.2;isolation:isolate"></path><path d="M209.91,169.82c-5.19-3.92-12.2-2.86-16.68.85a8.74,8.74,0,0,1-6.27,2.25c-.31-2-.65-3.91-1-5.63l23.21-1.51S209.46,167.25,209.91,169.82Z" style="opacity:0.2;isolation:isolate"></path><path d="M182.8,152.6c3.95,3.59,13.63,2.26,13.63,2.26s6-1.65,4.77-3.54c-3.56-.59-5.28-2.25-6-4.37a10.11,10.11,0,0,1-.36-4.07,19.89,19.89,0,0,1,.3-2.27l-12-8.86C184.75,137.6,186.67,148.36,182.8,152.6Z" style="fill:#ebb376"></path><path d="M185.94,137.38c.48,7.18,6.38,9.16,9.27,9.57a10.11,10.11,0,0,1-.36-4.07Z" style="opacity:0.2;isolation:isolate"></path><path d="M203.43,113.15s3.34,10.8-1.89,15.93-8.31-15.44-8.31-15.44Z" style="fill:#263238"></path><path d="M185.83,140.41a10.13,10.13,0,0,0,12.1,2.16,11.27,11.27,0,0,0,5.6-6.15,11.72,11.72,0,0,0,.37-1.14c1.87-7.18,1-19.13-6.79-22.49a11,11,0,0,0-15.37,10.69C182.05,131.5,181.85,136.24,185.83,140.41Z" style="fill:#ebb376"></path><path d="M193.88,126c-.06.64.32,1.19.75,1.19s.78-.52.8-1.17-.33-1.19-.75-1.19S193.9,125.31,193.88,126Z" style="fill:#263238"></path><path d="M201.27,126.12c-.06.64.33,1.19.75,1.19s.78-.52.8-1.17-.33-1.19-.75-1.19S201.29,125.5,201.27,126.12Z" style="fill:#263238"></path><path d="M198.92,126.39a23,23,0,0,0,3,5.66,3.81,3.81,0,0,1-3.16.52Z" style="fill:#d58745"></path><path d="M191.63,123.53a.41.41,0,0,0,.38-.14,3.09,3.09,0,0,1,2.48-1.24.39.39,0,0,0,.42-.35.38.38,0,0,0-.35-.41h0a3.79,3.79,0,0,0-3.15,1.52.38.38,0,0,0,.05.53h0A.8.8,0,0,0,191.63,123.53Z" style="fill:#263238"></path><path d="M204.5,123.63a.34.34,0,0,0,.22,0,.38.38,0,0,0,.2-.5h0a3.81,3.81,0,0,0-2.73-2.21.38.38,0,0,0-.43.32h0a.39.39,0,0,0,.32.43h0a3.08,3.08,0,0,1,2.13,1.79A.41.41,0,0,0,204.5,123.63Z" style="fill:#263238"></path><path d="M187.83,113.58l.53,3.52a2.64,2.64,0,0,0-1.23,3.36c1.22,3-.34,7.61-2.57,9.51,0,0-.11-1.28-1.19-.95s-.6,7,1.62,10.19a23.43,23.43,0,0,1-5.85-10.44c-1.85-6.47-1.66-11.27-.39-13.83Z" style="fill:#263238"></path><path d="M199.37,134.53a19.64,19.64,0,0,0-.79,2.85,4.52,4.52,0,0,1-.52,0c-2.36-.1-3.42-.93-3.88-1.82a3.09,3.09,0,0,1-.31-1.41,2.93,2.93,0,0,1,.11-.82,11,11,0,0,0,4.58,1.17C199.06,134.53,199.37,134.53,199.37,134.53Z" style="fill:#263238"></path><path d="M198.56,134.48l-.25.84c-2.22-.11-3.77-.48-4.44-1.19a2.93,2.93,0,0,1,.11-.82A11,11,0,0,0,198.56,134.48Z" style="fill:#fff"></path><path d="M198.06,137.36c-2.36-.1-3.42-.93-3.88-1.82a7.62,7.62,0,0,1,2.6.64A2.8,2.8,0,0,1,198.06,137.36Z" style="fill:#de5753"></path><path d="M193.12,115.77a1.88,1.88,0,0,1,2.31-.59c1.69.49,3.18,2.19,4.92,4.35s5.18,2.17,6,.89-.79-3.07-.79-3.07,1.48-8.21-7.47-10.09-13.66,2.08-13.66,2.08-7.43.25-8,7.12a32.46,32.46,0,0,0,.5,8.34s-2,2.51,1.76,2.36c4.27-.17,9.4-2.49,9.65-6.64S193.12,115.77,193.12,115.77Z" style="fill:#263238"></path><path d="M178.1,130a7.66,7.66,0,0,0,4.3,3.95c2.52.9,4-1.31,3.44-3.79-.5-2.21-2.39-5.4-5-5.21S177.08,127.72,178.1,130Z" style="fill:#ebb376"></path><path d="M166.74,154.66c-7.17,2.09-17.19,50.88-15.87,57.21s26.5,33,26.5,33l7-5.31s-21.4-30.3-21.66-36.63,9.49-29.8,9.49-29.8-.26-7.91-1.32-11.87A14.33,14.33,0,0,0,166.74,154.66Z" style="fill:#FFC324"></path><path d="M166.74,154.66c-7.17,2.09-17.19,50.88-15.87,57.21s26.5,33,26.5,33l7-5.31s-21.4-30.3-21.66-36.63,9.49-29.8,9.49-29.8-.26-7.91-1.32-11.87A14.33,14.33,0,0,0,166.74,154.66Z" style="fill:#fff;opacity:0.5;isolation:isolate"></path></g></g></svg>